<?xml version="1.0" encoding="utf-8"?>
<!-- Generator: Adobe Illustrator 24.1.2, SVG Export Plug-In . SVG Version: 6.00 Build 0)  -->
<svg version="1.1" id="Layer_1" xmlns="http://www.w3.org/2000/svg" xmlns:xlink="http://www.w3.org/1999/xlink" x="0px" y="0px"
	 viewBox="0 0 1000 1000" style="enable-background:new 0 0 1000 1000;" xml:space="preserve">
<style type="text/css">
	.st0{stroke:#FFFFFF;stroke-width:115;stroke-linecap:round;stroke-linejoin:round;stroke-miterlimit:10;}
	.st1{fill:#FFFFFF;stroke:#FFFFFF;stroke-width:100;stroke-linecap:round;stroke-linejoin:round;stroke-miterlimit:10;}
</style>
<path class="st0" d="M672.5,929.5h-344c-141.9,0-257-115.1-257-257v-344c0-141.9,115.1-257,257-257h344c141.9,0,257,115.1,257,257
	v344C929.5,814.4,814.4,929.5,672.5,929.5z"/>
<circle class="st1" cx="662.5" cy="337.5" r="82.5"/>
<circle class="st1" cx="337.5" cy="662.5" r="82.5"/>
<circle class="st1" cx="662.5" cy="662.5" r="82.5"/>
<circle class="st1" cx="337.5" cy="337.5" r="82.5"/>
<path d="M571,639H428c-37.6,0-68-30.4-68-68V428c0-37.6,30.4-68,68-68h143c37.6,0,68,30.4,68,68v143C639,608.6,608.6,639,571,639z"
	/>
</svg>
