<svg width="3781" height="1000" viewBox="0 0 3781 1000" fill="none" xmlns="http://www.w3.org/2000/svg">
<g clip-path="url(#clip0_1_3)">
<path d="M672.5 929.5H328.5C186.6 929.5 71.5 814.4 71.5 672.5V328.5C71.5 186.6 186.6 71.5 328.5 71.5H672.5C814.4 71.5 929.5 186.6 929.5 328.5V672.5C929.5 814.4 814.4 929.5 672.5 929.5Z" fill="white" stroke="black" stroke-width="115" stroke-miterlimit="10" stroke-linecap="round" stroke-linejoin="round"/>
<path d="M662.5 420C708.063 420 745 383.063 745 337.5C745 291.937 708.063 255 662.5 255C616.937 255 580 291.937 580 337.5C580 383.063 616.937 420 662.5 420Z" fill="black" stroke="black" stroke-width="100" stroke-miterlimit="10" stroke-linecap="round" stroke-linejoin="round"/>
<path d="M337.5 745C383.063 745 420 708.063 420 662.5C420 616.937 383.063 580 337.5 580C291.937 580 255 616.937 255 662.5C255 708.063 291.937 745 337.5 745Z" fill="black" stroke="black" stroke-width="100" stroke-miterlimit="10" stroke-linecap="round" stroke-linejoin="round"/>
<path d="M662.5 745C708.063 745 745 708.063 745 662.5C745 616.937 708.063 580 662.5 580C616.937 580 580 616.937 580 662.5C580 708.063 616.937 745 662.5 745Z" fill="black" stroke="black" stroke-width="100" stroke-miterlimit="10" stroke-linecap="round" stroke-linejoin="round"/>
<path d="M337.5 420C383.063 420 420 383.063 420 337.5C420 291.937 383.063 255 337.5 255C291.937 255 255 291.937 255 337.5C255 383.063 291.937 420 337.5 420Z" fill="black" stroke="black" stroke-width="100" stroke-miterlimit="10" stroke-linecap="round" stroke-linejoin="round"/>
<path d="M571 639H428C390.4 639 360 608.6 360 571V428C360 390.4 390.4 360 428 360H571C608.6 360 639 390.4 639 428V571C639 608.6 608.6 639 571 639Z" fill="white"/>
<path d="M1497.44 814L1333.38 620.105V814H1227.4V240.95H1333.38V570.65L1486.45 405.8H1637.17L1444.85 595.77L1637.96 814H1497.44ZM1808.97 823.42C1721.05 823.42 1653.54 758.265 1653.54 655.43V405.8H1759.51V629.525C1759.51 700.175 1788.56 730.79 1841.15 730.79C1885.9 730.79 1925.93 700.175 1925.93 629.525V405.8H2031.91V814H1929.07V752.77C1909.45 799.87 1872.55 823.42 1808.97 823.42ZM2364.47 814L2200.4 620.105V814H2094.43V240.95H2200.4V570.65L2353.48 405.8H2504.2L2311.87 595.77L2504.98 814H2364.47ZM2802.2 814L2638.13 620.105V814H2532.16V240.95H2638.13V570.65L2791.21 405.8H2941.93L2749.6 595.77L2942.71 814H2802.2ZM3113.99 824.205C2987.6 824.205 2902.82 728.435 2902.82 610.685C2902.82 492.935 2991.53 395.595 3113.99 395.595C3236.45 395.595 3321.23 492.935 3321.23 610.685C3321.23 622.46 3320.44 635.02 3318.09 648.365H3012.72C3024.5 696.25 3060.61 730.005 3113.99 730.005C3159.52 730.005 3194.84 706.455 3213.68 675.055L3296.11 737.07C3263.14 788.095 3194.84 824.205 3113.99 824.205ZM3012.72 569.08H3214.47C3202.69 523.55 3164.23 486.655 3112.42 486.655C3062.18 486.655 3024.5 520.41 3012.72 569.08ZM3557.85 824.205C3431.47 824.205 3346.69 728.435 3346.69 610.685C3346.69 492.935 3435.39 395.595 3557.85 395.595C3680.31 395.595 3765.09 492.935 3765.09 610.685C3765.09 622.46 3764.31 635.02 3761.95 648.365H3456.59C3468.36 696.25 3504.47 730.005 3557.85 730.005C3603.38 730.005 3638.71 706.455 3657.55 675.055L3739.97 737.07C3707 788.095 3638.71 824.205 3557.85 824.205ZM3456.59 569.08H3658.33C3646.56 523.55 3608.09 486.655 3556.28 486.655C3506.04 486.655 3468.36 520.41 3456.59 569.08Z" fill="black"/>
</g>
<defs>
<clipPath id="clip0_1_3">
<rect width="3781" height="1000" fill="white"/>
</clipPath>
</defs>
</svg>
