<?xml version="1.0" encoding="utf-8"?>
<!-- Generator: Adobe Illustrator 16.0.0, SVG Export Plug-In . SVG Version: 6.00 Build 0)  -->
<!DOCTYPE svg PUBLIC "-//W3C//DTD SVG 1.1//EN" "http://www.w3.org/Graphics/SVG/1.1/DTD/svg11.dtd">
<svg version="1.1" xmlns="http://www.w3.org/2000/svg" xmlns:xlink="http://www.w3.org/1999/xlink" x="0px" y="0px" width="4000px"
	 height="4000px" viewBox="0 0 4000 4000" enable-background="new 0 0 4000 4000" xml:space="preserve">
<g id="Layer_1">
	<g>
		<path d="M4000,3200c0,440-360,800-800,800H800c-440,0-800-360-800-800V800C0,360,360,0,800,0h2400c440,0,800,360,800,800V3200z"/>
		<path fill="none" stroke="#F1F2F2" stroke-miterlimit="10" d="M4000,3200c0,440-360,800-800,800H800c-440,0-800-360-800-800V800
			C0,360,360,0,800,0h2400c440,0,800,360,800,800V3200z"/>
	</g>
</g>
<g id="Layer_2">
	<g>
		<path fill="none" stroke="#F1F2F2" stroke-width="394" stroke-miterlimit="10" d="M3400.999,3151c0,137.5-112.5,250-250,250
			H849.001c-137.5,0-250-112.5-250-250V849.002c0-137.5,112.5-250,250-250h2301.998c137.5,0,250,112.5,250,250V3151z"/>
	</g>
	<g>
		<path d="M3262.125,3012.127c0,137.5-112.5,250-250,250H987.875c-137.5,0-250-112.5-250-250V987.875c0-137.5,112.5-250,250-250
			h2024.25c137.5,0,250,112.5,250,250V3012.127z"/>
		<path fill="none" stroke="#F1F2F2" stroke-miterlimit="10" d="M3262.125,3012.127c0,137.5-112.5,250-250,250H987.875
			c-137.5,0-250-112.5-250-250V987.875c0-137.5,112.5-250,250-250h2024.25c137.5,0,250,112.5,250,250V3012.127z"/>
	</g>
	
		<line fill="none" stroke="#F1F2F2" stroke-width="540" stroke-linecap="round" stroke-miterlimit="10" x1="1528.255" y1="1528.255" x2="2471.746" y2="2471.746"/>
	
		<line fill="none" stroke="#F1F2F2" stroke-width="540" stroke-linecap="round" stroke-miterlimit="10" x1="1528.255" y1="2471.746" x2="2471.746" y2="1528.255"/>
</g>
</svg>
