<svg id="Layer_1" data-name="Layer 1" xmlns="http://www.w3.org/2000/svg" viewBox="0 0 3809.55 973"><path d="M672.5,929.5h-344c-141.9,0-257-115.1-257-257v-344c0-141.9,115.1-257,257-257h344c141.9,0,257,115.1,257,257v344C929.5,814.4,814.4,929.5,672.5,929.5Z" transform="translate(-14 -14)" style="fill:#fff;stroke:#000;stroke-linecap:round;stroke-linejoin:round;stroke-width:115px"/><circle cx="648.5" cy="323.5" r="82.5" style="stroke:#000;stroke-linecap:round;stroke-linejoin:round;stroke-width:100px"/><circle cx="323.5" cy="648.5" r="82.5" style="stroke:#000;stroke-linecap:round;stroke-linejoin:round;stroke-width:100px"/><circle cx="648.5" cy="648.5" r="82.5" style="stroke:#000;stroke-linecap:round;stroke-linejoin:round;stroke-width:100px"/><circle cx="323.5" cy="323.5" r="82.5" style="stroke:#000;stroke-linecap:round;stroke-linejoin:round;stroke-width:100px"/><path d="M571,639H428a67.94,67.94,0,0,1-68-68V428a67.94,67.94,0,0,1,68-68H571a67.94,67.94,0,0,1,68,68V571A67.94,67.94,0,0,1,571,639Z" transform="translate(-14 -14)" style="fill:#fff"/><g style="isolation:isolate"><path d="M1231.79,774V235.52h101.72v248.3l204.92-248.3h124.15L1437.46,501l239.33,273H1548.15L1333.51,528.69V774Z" transform="translate(-14 -14)"/><path d="M1853.3,786q-47.5,0-77.41-16.08t-46.56-40.76a169.55,169.55,0,0,1-23.74-51.42q-7.11-26.73-8.6-48.8t-1.5-32.16V370.14H1798.7V560.85q0,13.85,1.5,35.34a158.4,158.4,0,0,0,9.35,43.19,82.32,82.32,0,0,0,25.61,36.27q17.76,14.6,50.3,14.59a105.73,105.73,0,0,0,28-4.12q15-4.11,28-15.89t21.5-34.78q8.42-23,8.41-60.39l58.34,27.67a210.68,210.68,0,0,1-19.44,89.75,161,161,0,0,1-58.53,67.68Q1912.76,786,1853.3,786Zm130.88-12V640.13h-12.72v-270h102.47V774Z" transform="translate(-14 -14)"/><path d="M2177.87,774l.75-538.48h103.21V564.59L2418.7,370.14h125.64L2398.5,572.07,2554.06,774H2421.69L2281.83,579.55V774Z" transform="translate(-14 -14)"/><path d="M2590.7,774l.75-538.48h103.21V564.59l136.86-194.45h125.65L2811.33,572.07,2966.89,774H2834.51L2694.66,579.55V774Z" transform="translate(-14 -14)"/><path d="M3184.52,785.22q-62.07,0-109.38-26.74a192.75,192.75,0,0,1-74-73.67q-26.74-46.92-26.74-107.51,0-66.18,26.18-115.17t72.17-76.1q46-27.11,105.83-27.11,63.57,0,108.07,29.91T3352.42,473q21.32,54.22,15,127.52H3266.79v-37.4q0-61.69-19.63-88.81T3183,447.17q-52,0-76.48,31.6t-24.49,93.3q0,56.46,24.49,87.32t72,30.85q29.91,0,51.23-13.09t32.53-37.77L3364,668.55q-22.82,55.35-72,86A199.31,199.31,0,0,1,3184.52,785.22ZM3050.65,600.49V525H3318.4v75.54Z" transform="translate(-14 -14)"/><path d="M3639.23,785.22q-62.07,0-109.38-26.74a192.75,192.75,0,0,1-74-73.67q-26.74-46.92-26.74-107.51,0-66.18,26.18-115.17t72.17-76.1q46-27.11,105.83-27.11,63.57,0,108.07,29.91T3807.13,473q21.32,54.22,15,127.52H3721.5v-37.4q0-61.69-19.63-88.81t-64.13-27.11q-52,0-76.48,31.6t-24.49,93.3q0,56.46,24.49,87.32t72,30.85q29.91,0,51.23-13.09T3717,639.38l101.72,29.17q-22.82,55.35-72,86A199.31,199.31,0,0,1,3639.23,785.22ZM3505.36,600.49V525h267.75v75.54Z" transform="translate(-14 -14)"/></g></svg>