<?xml version="1.0" encoding="utf-8"?>
<!-- Generator: Adobe Illustrator 24.1.2, SVG Export Plug-In . SVG Version: 6.00 Build 0)  -->
<svg version="1.1" id="Layer_1" xmlns="http://www.w3.org/2000/svg" xmlns:xlink="http://www.w3.org/1999/xlink" x="0px" y="0px"
	 viewBox="0 0 4862.7 973" style="enable-background:new 0 0 4862.7 973;" xml:space="preserve">
<style type="text/css">
	.st0{fill:#FFFFFF;stroke:#000000;stroke-width:115;stroke-linecap:round;stroke-linejoin:round;}
	.st1{stroke:#000000;stroke-width:100;stroke-linecap:round;stroke-linejoin:round;}
	.st2{fill:#FFFFFF;}
	.st3{fill:none;}
</style>
<path class="st0" d="M658.5,915.5h-344c-141.9,0-257-115.1-257-257v-344c0-141.9,115.1-257,257-257h344c141.9,0,257,115.1,257,257
	v344C915.5,800.4,800.4,915.5,658.5,915.5z"/>
<circle class="st1" cx="648.5" cy="323.5" r="82.5"/>
<circle class="st1" cx="323.5" cy="648.5" r="82.5"/>
<circle class="st1" cx="648.5" cy="648.5" r="82.5"/>
<circle class="st1" cx="323.5" cy="323.5" r="82.5"/>
<path class="st2" d="M557,625H414c-37.5,0-68-30.4-68-67.9c0,0,0-0.1,0-0.1V414c0-37.5,30.4-68,67.9-68c0,0,0.1,0,0.1,0h143
	c37.5,0,68,30.4,68,67.9c0,0,0,0.1,0,0.1v143c0,37.5-30.4,68-67.9,68C557.1,625,557,625,557,625z"/>
<g>
	<rect x="1170.8" y="187.4" class="st3" width="3524.7" height="598.3"/>
	<path d="M1236.3,229.8h113v549.9h-113V229.8z M1471.7,512l-0.9-47.6l370.6,315.3h-163.2l-329.8-289l293.3-260.9h160.6L1471.7,512z"
		/>
	<path d="M2297.9,576.6l0.8,28.9c-1.1,7.9-4,19.4-8.5,34.4c-4.5,15-11.5,31-20.8,48c-9.3,17-21.4,33.3-36.1,48.9
		c-14.7,15.6-32.9,28.3-54.4,38.3c-21.5,9.9-47,14.9-76.5,14.9c-23.2,0-46-2.8-68.4-8.5c-22.4-5.7-42.6-15.2-60.8-28.5
		c-18.1-13.3-32.6-31.3-43.3-54c-10.8-22.7-16.2-51.3-16.2-85.8V357.3h110.5v237.1c0,27.2,4.4,48.6,13.2,64.2
		c8.8,15.6,21.7,26.5,38.7,32.7c17,6.2,37.1,9.4,60.4,9.4c30.6,0,57-6.7,79-20c22.1-13.3,40.1-29.6,54-48.9
		C2283.3,612.6,2292.8,594.2,2297.9,576.6z M2402.5,779.8H2292V357.3h110.5V779.8z"/>
	<path d="M2510.4,187.3h110.5v592.4h-110.5V187.3z M2977.1,357.3l-251.6,221.9l2.5-68l268.6,268.6h-140.3l-232.9-237.1l203.1-185.3
		H2977.1z"/>
	<path d="M3062.1,187.3h110.5v592.4h-110.5V187.3z M3528.7,357.3l-251.6,221.9l2.5-68l268.6,268.6H3408l-232.9-237.1l203.1-185.3
		H3528.7z"/>
	<path d="M3966.5,639.5h107.1c-4.5,28.9-16.6,54.7-36.1,77.3c-19.6,22.7-46,40.5-79.5,53.6c-33.4,13-74.2,19.5-122.4,19.5
		c-53.8,0-101.4-8.6-142.8-25.9c-41.4-17.3-73.7-42.4-96.9-75.2c-23.2-32.9-34.9-72.5-34.9-119c0-46.5,11.3-86.3,34-119.4
		c22.7-33.1,54.3-58.5,94.8-76.1c40.5-17.6,88-26.3,142.4-26.3c55.5,0,101.7,8.8,138.5,26.3c36.8,17.6,64.2,44.1,82,79.5
		c17.8,35.4,25.4,80.6,22.5,135.6h-402.9c2.8,21.5,10.9,41.1,24.2,58.7c13.3,17.6,31.5,31.5,54.4,41.7c23,10.2,50.3,15.3,82,15.3
		c35.1,0,64.5-6.1,88-18.3C3944.5,674.5,3959.7,658.8,3966.5,639.5z M3827.1,432.1c-40.8,0-74,8.9-99.5,26.8s-41.9,39.8-49.3,65.9
		h287.3c-2.8-28.3-16.3-50.9-40.4-67.6C3901.1,440.5,3868.4,432.1,3827.1,432.1z"/>
	<path d="M4542.8,639.5h107.1c-4.5,28.9-16.6,54.7-36.1,77.3c-19.6,22.7-46,40.5-79.5,53.6c-33.4,13-74.2,19.5-122.4,19.5
		c-53.8,0-101.4-8.6-142.8-25.9c-41.4-17.3-73.7-42.4-96.9-75.2c-23.2-32.9-34.9-72.5-34.9-119c0-46.5,11.3-86.3,34-119.4
		c22.7-33.1,54.3-58.5,94.8-76.1c40.5-17.6,88-26.3,142.4-26.3c55.5,0,101.7,8.8,138.5,26.3c36.8,17.6,64.2,44.1,82,79.5
		c17.8,35.4,25.4,80.6,22.5,135.6h-402.9c2.8,21.5,10.9,41.1,24.2,58.7c13.3,17.6,31.5,31.5,54.4,41.7c23,10.2,50.3,15.3,82,15.3
		c35.1,0,64.5-6.1,88-18.3C4520.8,674.5,4536,658.8,4542.8,639.5z M4403.4,432.1c-40.8,0-74,8.9-99.5,26.8s-41.9,39.8-49.3,65.9
		h287.3c-2.8-28.3-16.3-50.9-40.4-67.6C4477.4,440.5,4444.7,432.1,4403.4,432.1z"/>
</g>
</svg>
