<svg xmlns="http://www.w3.org/2000/svg" height="1200" width="1600" version="1.1" xmlns:xlink="http://www.w3.org/1999/xlink" xmlns:svgjs="http://svgjs.com/svgjs"><rect fill="#fafafa" width="1600" height="1200"></rect><g><path d="M613.05 591.63C658.53 591.63 695.41 554.76 695.41 509.28 695.41 463.79 658.53 426.92 613.05 426.92 567.56 426.92 530.69 463.79 530.69 509.28 530.69 554.76 567.56 591.63 613.05 591.63Z" fill="#fafafa" opacity="1" stroke-width="4" stroke="#000000"></path><path d="M608.59 551.26C606.86 551.26 605.22 550.61 604 549.35L575.31 520.66C572.76 518.1 572.76 513.99 575.31 511.48 577.86 508.97 581.97 508.93 584.48 511.48L607.94 534.94 641.05 492.14C643.26 489.28 647.32 488.76 650.14 490.97 652.99 493.18 653.51 497.24 651.31 500.06L613.65 548.7C612.53 550.17 610.8 551.08 608.94 551.21 608.85 551.21 608.72 551.26 608.59 551.26Z" fill="#fafafa" opacity="0" stroke-width="4" stroke="#ffffff00"></path><path d="M608.59 540.09C606.86 540.09 605.22 539.44 604 538.19L575.31 509.49C572.76 506.94 572.76 502.83 575.31 500.32 577.86 497.81 581.97 497.76 584.48 500.32L607.94 523.77 641.05 480.97C643.26 478.12 647.32 477.6 650.14 479.8 652.99 482.01 653.51 486.08 651.31 488.89L613.65 537.54C612.53 539.01 610.8 539.92 608.94 540.05 608.85 540.05 608.72 540.09 608.59 540.09Z" fill="#fafafa" opacity="1" stroke-width="4" stroke="#000000"></path></g><g><path d="M253.09 126.9H432.85C439.59 126.9 446.26 128.22 452.48 130.8 458.7 133.37 464.36 137.15 469.12 141.92 473.88 146.68 477.66 152.33 480.23 158.55 482.81 164.78 484.13 171.45 484.13 178.18V357.94C484.13 364.67 482.81 371.34 480.23 377.57 477.66 383.79 473.88 389.44 469.12 394.2 464.36 398.97 458.7 402.75 452.48 405.32 446.26 407.9 439.59 409.22 432.85 409.22H253.09C246.36 409.22 239.69 407.9 233.47 405.32 227.24 402.75 221.59 398.97 216.83 394.2 212.06 389.44 208.29 383.79 205.71 377.57 203.13 371.34 201.81 364.67 201.81 357.94V178.18C201.81 171.45 203.13 164.78 205.71 158.55 208.29 152.33 212.06 146.68 216.83 141.92 221.59 137.15 227.24 133.37 233.47 130.8 239.69 128.22 246.36 126.9 253.09 126.9V126.9Z" fill="#fafafa" opacity="1" stroke-width="4" stroke="#000000"></path></g><g><path d="M1263.09 275.42H1442.85C1449.59 275.42 1456.26 276.74 1462.48 279.32 1468.7 281.89 1474.36 285.67 1479.12 290.43 1483.88 295.2 1487.66 300.85 1490.23 307.07 1492.81 313.3 1494.13 319.97 1494.13 326.7V506.46C1494.13 513.19 1492.81 519.86 1490.23 526.08 1487.66 532.31 1483.88 537.96 1479.12 542.72 1474.36 547.49 1468.7 551.26 1462.48 553.84 1456.26 556.42 1449.59 557.74 1442.85 557.74H1263.09C1256.36 557.74 1249.69 556.42 1243.47 553.84 1237.24 551.26 1231.59 547.49 1226.83 542.72 1222.06 537.96 1218.29 532.31 1215.71 526.08 1213.13 519.86 1211.81 513.19 1211.81 506.46V326.7C1211.81 319.97 1213.13 313.3 1215.71 307.07 1218.29 300.85 1222.06 295.2 1226.83 290.43 1231.59 285.67 1237.24 281.89 1243.47 279.32 1249.69 276.74 1256.36 275.42 1263.09 275.42V275.42Z" fill="#fafafa" opacity="1" stroke-width="4" stroke="#000000"></path></g><g><path d="M1356.32 860.63C1401.87 860.63 1438.78 823.71 1438.78 778.17 1438.78 732.62 1401.87 695.71 1356.32 695.71 1310.77 695.71 1273.86 732.62 1273.86 778.17 1273.86 823.71 1310.77 860.63 1356.32 860.63Z" fill="#fafafa" opacity="1" stroke-width="4" stroke="#000000"></path><path d="M1368.65 738.52L1343.63 757.9H1329.18C1325.13 757.9 1321.78 761.25 1321.78 765.3V791.03C1321.78 795.08 1325.13 798.43 1329.18 798.43H1343.63L1368.65 817.81C1373.59 821.51 1380.63 818.16 1380.63 812V744.34C1380.63 738.17 1373.59 734.82 1368.65 738.52Z" fill="#fafafa" opacity="1" stroke-width="4" stroke="#000000"></path></g><g><path d="M920.94 308.94C917.75 305.84 915.21 302.14 913.46 298.06 911.71 293.98 910.78 289.59 910.72 285.14 910.67 280.7 911.5 276.29 913.15 272.16 914.81 268.04 917.26 264.28 920.37 261.11 923.49 257.94 927.19 255.41 931.28 253.67 935.37 251.94 939.77 251.02 944.21 250.98 948.65 250.95 953.06 251.79 957.18 253.47 961.3 255.14 965.04 257.61 968.21 260.73 968.37 260.89 968.52 261.04 968.68 261.2L975.17 267.69 981.51 261.2C984.63 258.01 988.36 255.47 992.47 253.73 996.58 251.99 1000.99 251.08 1005.45 251.06 1009.92 251.04 1014.34 251.9 1018.47 253.6 1022.6 255.29 1026.35 257.79 1029.5 260.95 1032.66 264.1 1035.16 267.85 1036.86 271.98 1038.56 276.11 1039.42 280.54 1039.39 285 1039.37 289.46 1038.46 293.87 1036.72 297.99 1034.98 302.09 1032.44 305.82 1029.25 308.94L975.46 362.74 920.94 308.94Z" fill="#fafafa" opacity="1" stroke-width="4" stroke="#000000"></path></g><g><path d="M87.45 780.39C84.35 777.38 81.88 773.78 80.18 769.81 78.47 765.84 77.57 761.58 77.52 757.25 77.47 752.94 78.27 748.65 79.88 744.64 81.49 740.63 83.88 736.98 86.9 733.9 89.92 730.81 93.53 728.35 97.5 726.67 101.48 724.98 105.75 724.09 110.07 724.05 114.39 724.02 118.67 724.84 122.68 726.46 126.68 728.09 130.32 730.49 133.4 733.52 133.55 733.68 133.7 733.82 133.85 733.98L140.16 740.29 146.33 733.98C149.36 730.88 152.98 728.41 156.98 726.72 160.97 725.03 165.26 724.14 169.6 724.12 173.94 724.1 178.24 724.94 182.26 726.59 186.27 728.24 189.91 730.67 192.98 733.74 196.05 736.8 198.48 740.45 200.13 744.46 201.78 748.48 202.62 752.78 202.59 757.12 202.57 761.45 201.69 765.74 200 769.74 198.3 773.73 195.83 777.36 192.73 780.39L140.44 832.68 87.45 780.39Z" fill="#fafafa" opacity="1" stroke-width="4" stroke="#000000"></path></g><g><path d="M388.95 237.2L386.84 234.09 366.25 246.07 369.92 224.74 367.62 224.14 358.12 250.77 346.9 257.29 345.63 220.55 366.22 206.11 365.03 203.92 345.37 212.42 344.79 195.07H340.04L338.53 239.05 305.08 207.98 302.68 210.28 318.6 229.2 296.98 231.58 297.01 234.09 324.7 236.46 338.06 252.33 337.4 271.84 310.15 267.85 309.12 271.44 337 283.3 334.76 349.5H350.07L347.32 269.96 388.95 237.2Z" fill="#fafafa" opacity="1" stroke-width="4" stroke="#000000"></path><path d="M341.91 242.19L341.36 195.07H340.04L338.53 239.05 341.91 242.19Z" fill="#fafafa" opacity="0" stroke-width="4" stroke="#ffffff00"></path><path d="M342.28 272.55L342.17 263.36C342.12 259.33 340.67 255.42 338.08 252.33L337.42 271.84 342.28 272.55Z" fill="#fafafa" opacity="0" stroke-width="4" stroke="#ffffff00"></path><path d="M337 283.3L334.73 349.5H343.18L342.49 291.48C342.46 287.91 340.3 284.69 337 283.3Z" fill="#fafafa" opacity="0" stroke-width="4" stroke="#ffffff00"></path><path d="M337 283.3L341.36 285.09" stroke="#000000" stroke-width="4" stroke-linecap="round" stroke-linejoin="round" opacity="1" fill="none"></path><path d="M346.9 257.29L347.11 263.13" stroke="#000000" stroke-width="4" stroke-linecap="round" stroke-linejoin="round" opacity="1" fill="none"></path><path d="M345.37 212.42L345.5 216.08" stroke="#000000" stroke-width="4" stroke-linecap="round" stroke-linejoin="round" opacity="1" fill="none"></path><path d="M338.53 239.05L341.91 242.19" stroke="#000000" stroke-width="4" stroke-linecap="round" stroke-linejoin="round" opacity="1" fill="none"></path><path d="M318.6 229.2L320.61 231.58" stroke="#000000" stroke-width="4" stroke-linecap="round" stroke-linejoin="round" opacity="1" fill="none"></path></g><g><path d="M1435.52 478.22C1435.52 478.22 1386.19 421.59 1327.91 401.05" stroke="#000000" stroke-width="4" stroke-linecap="round" stroke-linejoin="round" opacity="1" fill="none"></path><path d="M1371.57 425.6C1366.5 425.6 1357.41 411.44 1350.44 392.63 1346.86 383.02 1344.39 373.65 1343.49 366.25 1342.58 358.84 1343.35 354.29 1345.65 353.43 1345.9 353.33 1346.18 353.29 1346.48 353.29 1351.55 353.29 1360.64 367.46 1367.61 386.26 1371.18 395.87 1373.64 405.24 1374.56 412.64 1375.46 420.06 1374.7 424.61 1372.4 425.46 1372.13 425.56 1371.86 425.6 1371.57 425.6Z" fill="#fafafa" opacity="1" stroke-width="4" stroke="#000000"></path><path d="M1321.51 414.23C1317.8 416.91 1313.83 419.27 1309.69 421.22 1302.44 424.7 1295.13 426.92 1289.11 427.5 1283.09 428.07 1279.07 426.92 1277.79 424.25 1276.7 421.96 1277.8 418.68 1280.9 415.04 1283.34 412.15 1293.44 406.42 1291.22 406.34 1277.06 403.61 1267.27 397.75 1267.96 392.46 1268.06 391.6 1268.45 390.78 1269.09 390.02 1272.4 386.13 1295.13 386.07 1293.98 384.84 1285.92 376.06 1282.52 367.73 1285.51 364.14 1289.44 359.5 1302.93 364.39 1315.59 375.04 1319.22 378.08 1322.57 381.47 1325.55 385.15 1323.25 386.26 1321.26 387.78 1319.64 389.69 1315.23 394.89 1314.25 402.24 1317.13 408.4 1318.18 410.63 1319.65 412.58 1321.52 414.19L1321.54 414.21 1321.51 414.23Z" fill="#fafafa" opacity="1" stroke-width="4" stroke="#000000"></path><path d="M1328.93 407.56C1327.05 409.78 1324.55 412.04 1321.5 414.27 1317.02 410.42 1314.82 404.64 1315.57 398.8 1316 395.45 1317.39 392.3 1319.58 389.71 1321.22 387.78 1323.21 386.26 1325.51 385.18 1330.58 391.44 1333.08 397.1 1332.42 400.71 1332.28 402.67 1331.08 405.04 1328.93 407.56Z" fill="#ffffff" opacity="1" stroke-width="4" stroke="#000000"></path></g><g><path d="M578.97 271.22L514.68 355.35" stroke="#000000" stroke-width="4" stroke-linecap="round" stroke-linejoin="round" opacity="1" fill="none"></path><path d="M525.51 408.99L597.34 375.19" stroke="#000000" stroke-width="4" stroke-linecap="round" stroke-linejoin="round" opacity="1" fill="none"></path></g><g><path d="M1422.13 598.66C1409.92 618.71 1394.05 632.99 1375.7 645.32" stroke="#000000" stroke-width="4" stroke-linecap="round" stroke-linejoin="round" opacity="1" fill="none"></path><path d="M1435.34 680.24C1435.34 664.96 1434.64 629.63 1434.64 629.63" stroke="#000000" stroke-width="4" stroke-linecap="round" stroke-linejoin="round" opacity="1" fill="none"></path><path d="M1492.21 650.39C1481.83 642.07 1464.49 621.96 1458.94 612.22" stroke="#000000" stroke-width="4" stroke-linecap="round" stroke-linejoin="round" opacity="1" fill="none"></path></g><g><path d="M939.4 1004.22C944.81 1005.54 980.18 987.09 981.43 986.46 981.43 986.46 981.43 986.46 981.43 986.4 982.4 968.15 981.15 949.56 977.83 931.67 977.83 931.67 977.83 931.6 977.76 931.6L942.94 924.59 911.79 931.95C911.72 931.95 911.72 932.02 911.72 932.02 918.38 947.21 923.17 959.27 924.42 968.08 924.49 968.36 933.99 1002.9 939.4 1004.22Z" fill="#fafafa" opacity="1" stroke-width="4" stroke="#000000"></path><path d="M837.16 1000.75C842.36 1002 880.79 987.09 882.11 986.53 882.11 986.53 882.18 986.53 882.18 986.46 883.91 972.45 885.78 960.94 886.13 945.06 886.2 940.62 885.99 936.11 885.85 931.53 885.85 931.53 885.85 931.46 885.78 931.46L854.99 927.23 820.72 931.32C820.65 931.32 820.65 931.39 820.65 931.39 822.46 942.63 823.7 953.03 823.84 961.56 823.84 963.85 823.84 965.86 823.77 967.88 823.77 967.94 823.77 967.94 823.84 967.94 834.18 968.29 831.68 999.37 837.16 1000.75Z" fill="#fafafa" opacity="1" stroke-width="4" stroke="#000000"></path><path d="M722.15 520.77C720.7 519.32 715.36 521.4 715.91 528.75 715.91 528.82 715.84 528.89 715.77 528.82 709.46 516.89 693.02 493.17 688.93 505.44 688.93 505.51 688.86 505.51 688.86 505.51 683.38 502.18 680.67 507.59 681.99 512.38 681.99 512.45 681.99 512.45 681.92 512.45 675.82 512.52 676.44 518.62 677.83 522.09V522.16C671.03 526.39 685.32 550.39 686.22 551.22 688.24 557.47 691.77 569.19 697.32 574.81 697.32 574.81 697.32 574.81 697.32 574.87 697.04 581.33 696.97 587.57 697.11 593.19 697.11 593.26 697.11 593.26 697.18 593.26L719.73 594.57C719.73 594.57 719.73 594.57 719.79 594.57L742.41 578.27V578.2C737.55 559.13 729.09 527.71 722.15 520.77Z" fill="#fafafa" opacity="1" stroke-width="4" stroke="#000000"></path><path d="M808.86 473.05C817.05 455.09 837.85 449.96 858.66 461.19 876.49 471.04 874.2 481.93 872.95 496.5 872.6 500.31 874.34 515.85 873.3 527.5 873.02 530.69 872.6 533.6 872.33 536.1L872.12 537 823.7 538.39C823.64 538.39 823.57 536.24 823.57 536.24L824.05 532.91C824.05 532.84 823.98 532.84 823.98 532.84 797.14 537.84 791.94 519.18 799.01 499.69V499.62C793.39 494.14 794.5 490.6 802.83 489.98 802.83 489.98 802.9 489.98 802.9 489.91 803.8 485.75 807.06 476.94 808.86 473.05Z" fill="#fafafa" opacity="1" stroke-width="4" stroke="#000000"></path><path d="M824.04 532.91L823.56 536.1V536.17L823 543.8C823 543.87 823.07 543.87 823.14 543.87L838.19 528.61C838.26 528.54 838.19 528.47 838.12 528.47 830.22 531.39 824.6 532.7 824.04 532.91 824.04 532.84 824.04 532.84 824.04 532.91Z" fill="#fafafa" opacity="0" stroke-width="4" stroke="#ffffff00"></path><path d="M805.66 506.9C805.66 506.9 809.2 507.73 812.04 504.47" stroke="#000000" stroke-width="4" stroke-linecap="round" stroke-linejoin="round" opacity="1" fill="none"></path><path d="M824.04 532.84C826.82 532.15 835.49 529.79 838.12 528.54" stroke="#000000" stroke-width="4" stroke-linecap="round" stroke-linejoin="round" opacity="1" fill="none"></path><path d="M841.87 510.58L848.32 505.72" stroke="#000000" stroke-width="4" stroke-linecap="round" stroke-linejoin="round" opacity="1" fill="none"></path><path d="M812.25 488.31C815.1 488.38 815.1 492.54 812.25 492.61 809.41 492.54 809.41 488.38 812.25 488.31Z" fill="#000000" opacity="1" stroke-width="4" stroke="#000000"></path><path d="M876 499.2C877.39 484.71 876.9 467.78 859.08 458 837.78 447.39 817.74 451.41 808.86 472.98V473.05C809.35 473.61 816.7 481.45 837.3 473.54 837.37 473.54 837.44 473.61 837.37 473.61 833.42 479.36 829.53 490.46 834.04 499.27 834.04 499.34 834.11 499.34 834.18 499.27 861.51 480.13 872.33 506.69 848.74 521.47 848.67 521.47 848.67 521.54 848.74 521.61 858.11 528.75 872.26 527.57 873.23 527.43L873.3 527.36C874.41 516.33 875.52 503.02 876 499.2Z" fill="#fafafa" opacity="1" stroke-width="4" stroke="#000000"></path><path d="M902.91 572.31C892.99 557.05 883.97 550.39 871.49 545.53L871.42 545.47 872.32 536.24C872.32 536.17 872.32 536.17 872.25 536.17H823.63C823.56 536.17 823.56 536.17 823.56 536.24L822.52 544.56C822.52 544.63 822.45 544.63 822.45 544.63 790.75 542.76 764.05 572.45 745.74 592.7 745.67 592.77 745.6 592.7 745.6 592.7 745.39 591.8 744.21 586.32 742.27 578.34 742.27 578.27 742.2 578.27 742.2 578.27L697.04 593.26 696.97 593.32C697.25 667.89 734.64 674.48 779.31 642.29 785.48 638.06 791.24 633.35 796.51 628.01 796.58 627.94 796.58 628.01 796.65 628.01L802.54 647.15 808.65 666.99 808.72 667.06 849.43 675.03 883.07 667.19H883.14L892.92 679.4C893.06 679.96 899.09 705.34 904.64 700.9 909.71 696.81 913.52 691.33 916.16 685.02 930.79 650.55 913.73 589.09 902.91 572.31Z" fill="#fafafa" opacity="1" stroke-width="4" stroke="#000000"></path><path d="M916.09 685.09C893.2 668.44 890.63 628.63 890.35 623.22 890.35 623.15 890.21 623.15 890.21 623.22 888.62 633.21 884.67 658.04 883.21 666.99V667.06L892.92 679.68C893.06 680.03 902.7 703.82 907.56 698.48 912.97 693.14 915.95 685.85 916.23 685.23 916.09 685.16 916.09 685.16 916.09 685.09Z" fill="#fafafa" opacity="0" stroke-width="4" stroke="#ffffff00"></path><path d="M961.59 880.83C942.72 840.39 937.31 848.23 921.29 743.42 915.67 706.73 901.8 683.77 883.14 666.99 883.14 666.99 883.14 666.99 883.07 666.99H860.25 808.65C808.65 666.99 808.58 666.99 808.58 667.06 808.23 669.41 796.09 750.43 806.7 849.55 808.99 871.12 814.4 896.57 818.5 919.53 819.26 923.69 819.95 927.37 820.51 931.39 820.51 931.39 820.51 931.46 820.58 931.46L885.64 931.53C885.71 931.53 885.71 931.53 885.71 931.46 884.8 908.36 880.64 884.16 871.42 848.37 869.89 840.53 868.57 825.75 868.85 825.75 874.54 844.2 881.41 863.83 889.45 883.46 895.97 899.42 903.32 915.51 911.58 931.95 911.58 931.95 911.58 932.02 911.65 932.02 913.38 932.02 975.11 931.74 977.68 931.74 977.75 931.74 977.75 931.67 977.75 931.67 974.56 913.91 969.08 897.2 961.59 880.83Z" fill="#fafafa" opacity="1" stroke-width="4" stroke="#000000"></path><path d="M962.98 986.46C953.48 986.46 945.36 998.67 939.88 997.35 934.34 996.04 944.67 985.15 944.67 976.34 944.67 968.57 935.79 968.22 924.56 968.15 924.49 968.15 924.49 968.22 924.49 968.22 925.53 974.88 924.76 980.01 921.37 983.48 911.1 994.3 901.53 996.8 894.66 1007.06 894.11 1007.97 893.34 1008.94 893 1010.05 893 1010.12 893 1010.12 893.07 1010.12 896.12 1010.26 973.32 1013.03 974.91 1013.1 974.91 1013.1 974.91 1013.1 974.98 1013.1L978.8 1010.05C978.8 1010.05 978.8 1010.05 978.8 1009.98 980.04 1002.14 980.95 994.3 981.36 986.46 981.36 986.4 981.36 986.4 981.29 986.4L962.98 986.46Z" fill="#fafafa" opacity="1" stroke-width="4" stroke="#000000"></path><path d="M856.03 712.28C862.82 712.28 866.85 706.8 865.04 700L861.37 686.55H836.81L840.42 700C842.36 706.8 849.3 712.28 856.03 712.28Z" stroke="#000000" stroke-width="4" stroke-linecap="round" stroke-linejoin="round" opacity="1" fill="none"></path><path d="M900.55 686.62H887.02L890.63 700.14C892.5 706.87 899.93 712.49 905.34 712.49 908.18 712.49 910.26 711.93 911.79 710.96" stroke="#000000" stroke-width="4" stroke-linecap="round" stroke-linejoin="round" opacity="1" fill="none"></path><path d="M808.65 667.06L883.07 666.92 890.21 623.22" stroke="#000000" stroke-width="4" stroke-linecap="round" stroke-linejoin="round" opacity="1" fill="none"></path><path d="M885.98 652.28L895.76 655.4" stroke="#000000" stroke-width="4" stroke-linecap="round" stroke-linejoin="round" opacity="1" fill="none"></path><path d="M745.74 592.7L751.08 586.8" stroke="#000000" stroke-width="4" stroke-linecap="round" stroke-linejoin="round" opacity="1" fill="none"></path><path d="M796.58 628.01L802.48 647.01C802.48 647.08 802.62 647.08 802.62 647.01L814.76 611.64C814.76 611.57 814.69 611.5 814.62 611.57L796.58 628.01C796.58 627.94 796.58 627.94 796.58 628.01Z" fill="#fafafa" opacity="0" stroke-width="4" stroke="#ffffff00"></path><path d="M796.58 628.07L814.62 611.57" stroke="#000000" stroke-width="4" stroke-linecap="round" stroke-linejoin="round" opacity="1" fill="none"></path><path d="M822.53 544.56C822.53 544.56 817.6 544.36 813.92 544.84" stroke="#000000" stroke-width="4" stroke-linecap="round" stroke-linejoin="round" opacity="1" fill="none"></path><path d="M880.51 744.88C877.25 773.87 866.85 790.31 868.93 825.68" stroke="#000000" stroke-width="4" stroke-linecap="round" stroke-linejoin="round" opacity="1" fill="none"></path><path d="M688.87 505.44C695.8 513.77 708.98 534.51 708.98 534.51" stroke="#000000" stroke-width="4" stroke-linecap="round" stroke-linejoin="round" opacity="1" fill="none"></path><path d="M681.85 512.45C685.32 517.3 695.03 531.73 700.65 541.44" stroke="#000000" stroke-width="4" stroke-linecap="round" stroke-linejoin="round" opacity="1" fill="none"></path><path d="M677.69 522.16C677.69 522.16 688.17 540.12 693.02 548.45" stroke="#000000" stroke-width="4" stroke-linecap="round" stroke-linejoin="round" opacity="1" fill="none"></path><path d="M860.88 986.19C851.37 986.19 843.12 998.53 837.71 997.22 828.83 994.37 861.78 966.77 823.84 968.08 823.77 968.08 823.77 968.08 823.77 968.15 823.97 992.36 794.01 993.05 786.38 1010.05 786.38 1010.05 786.38 1010.05 786.38 1010.12 786.45 1010.32 786.87 1011.71 786.94 1011.99 786.94 1011.99 786.94 1012.06 787.01 1012.06L875.93 1012.75H876L877.94 1010.19C879.67 1002.42 881.13 994.51 882.24 986.67 882.24 986.6 882.24 986.6 882.17 986.6 880.71 986.46 860.88 986.19 860.88 986.19Z" fill="#fafafa" opacity="1" stroke-width="4" stroke="#000000"></path><path d="M715.78 528.82C717.44 531.87 720.43 537.07 720.43 537.07" stroke="#000000" stroke-width="4" stroke-linecap="round" stroke-linejoin="round" opacity="1" fill="none"></path><path d="M817.11 984.8L823.42 990.49" stroke="#000000" stroke-width="4" stroke-linecap="round" stroke-linejoin="round" opacity="1" fill="none"></path><path d="M810.25 990.49L815.1 997.42" stroke="#000000" stroke-width="4" stroke-linecap="round" stroke-linejoin="round" opacity="1" fill="none"></path><path d="M920.19 985.15L926.15 990.49" stroke="#000000" stroke-width="4" stroke-linecap="round" stroke-linejoin="round" opacity="1" fill="none"></path><path d="M913.52 990.63L917.82 997.42" stroke="#000000" stroke-width="4" stroke-linecap="round" stroke-linejoin="round" opacity="1" fill="none"></path><path d="M890.56 1020.04H976.71C976.71 1020.04 976.78 1020.04 976.78 1019.97 976.92 1019.55 977.82 1016.01 978.79 1010.12 978.79 1010.05 978.79 1010.05 978.72 1010.05L892.99 1010.12C892.99 1010.12 892.92 1010.12 892.92 1010.19 891.53 1013.24 890.63 1016.57 890.42 1019.97 890.49 1019.97 890.56 1020.04 890.56 1020.04Z" fill="#fafafa" opacity="1" stroke-width="4" stroke="#000000"></path><path d="M786.31 1010.12C784.92 1013.24 784.09 1016.64 783.95 1019.97 783.95 1020.04 783.95 1020.04 784.02 1020.04H875.23C875.23 1020.04 875.3 1020.04 875.3 1019.97 875.44 1019.55 876.34 1016.29 877.8 1010.12 877.8 1010.05 877.8 1010.05 877.73 1010.05 874.82 1009.84 788.53 1010.12 786.31 1010.12 786.31 1010.05 786.31 1010.05 786.31 1010.12Z" fill="#fafafa" opacity="1" stroke-width="4" stroke="#000000"></path><path d="M868.93 825.75C871.7 834.63 875.17 845.8 878.92 855.79 882.25 864.8 886.13 875.42 889.39 883.12 889.39 883.19 889.53 883.19 889.53 883.12 889.04 875.56 882.04 765.76 880.51 745.02 880.51 744.95 880.37 744.95 880.37 745.02 877.81 771.1 868.03 794.82 868.93 825.75Z" fill="#fafafa" opacity="0" stroke-width="4" stroke="#ffffff00"></path></g><g><path d="M624.42 737.55H804.17C810.91 737.55 817.58 738.88 823.8 741.45 830.02 744.03 835.68 747.81 840.44 752.57 845.21 757.33 848.98 762.99 851.55 769.21 854.13 775.43 855.46 782.1 855.46 788.84V968.59C855.46 975.33 854.13 982 851.55 988.22 848.98 994.44 845.21 1000.1 840.44 1004.86 835.68 1009.62 830.02 1013.4 823.8 1015.97 817.58 1018.55 810.91 1019.87 804.17 1019.87H624.42C617.68 1019.87 611.01 1018.55 604.79 1015.97 598.57 1013.4 592.91 1009.62 588.15 1004.86 583.39 1000.1 579.61 994.44 577.03 988.22 574.46 982 573.13 975.33 573.14 968.59V788.84C573.13 782.1 574.46 775.43 577.03 769.21 579.61 762.99 583.39 757.33 588.15 752.57 592.91 747.81 598.57 744.03 604.79 741.45 611.01 738.88 617.68 737.55 624.42 737.55V737.55Z" fill="#fafafa" opacity="1" stroke-width="4" stroke="#000000"></path></g><g><path d="M738.73 884.68C751.36 833.86 749.96 789.77 735.61 786.2 721.27 782.64 699.4 820.95 686.78 871.77 674.15 922.59 675.55 966.67 689.9 970.24 704.24 973.8 726.1 935.49 738.73 884.68Z" stroke="#000000" stroke-width="4" stroke-linecap="round" stroke-linejoin="round" opacity="1" fill="none"></path><path d="M780.62 943.92C790.87 933.28 768.63 895.2 730.93 858.86 693.24 822.51 654.36 801.68 644.11 812.32 633.84 822.96 656.09 861.05 693.79 897.39 731.49 933.73 770.36 954.57 780.62 943.92Z" stroke="#000000" stroke-width="4" stroke-linecap="round" stroke-linejoin="round" opacity="1" fill="none"></path><path d="M720.15 903.9C770.46 889.43 807.95 866.18 803.86 851.97 799.78 837.76 755.67 837.99 705.34 852.46 655.03 866.94 617.55 890.2 621.63 904.4 625.71 918.61 669.82 918.38 720.15 903.9Z" stroke="#000000" stroke-width="4" stroke-linecap="round" stroke-linejoin="round" opacity="1" fill="none"></path><path d="M712.75 893.1C720.98 893.1 727.66 886.43 727.66 878.19 727.66 869.96 720.98 863.29 712.75 863.29 704.52 863.29 697.85 869.96 697.85 878.19 697.85 886.43 704.52 893.1 712.75 893.1Z" fill="#fafafa" opacity="1" stroke-width="4" stroke="#000000"></path><path d="M650.73 852C654.99 852 658.46 848.54 658.46 844.26 658.46 839.99 654.99 836.53 650.73 836.53 646.45 836.53 642.99 839.99 642.99 844.26 642.99 848.54 646.45 852 650.73 852Z" fill="#fafafa" opacity="1" stroke-width="4" stroke="#000000"></path><path d="M785.3 884.03C789.57 884.03 793.04 880.57 793.04 876.29 793.04 872.02 789.57 868.55 785.3 868.55 781.03 868.55 777.57 872.02 777.57 876.29 777.57 880.57 781.03 884.03 785.3 884.03Z" fill="#fafafa" opacity="1" stroke-width="4" stroke="#000000"></path><path d="M678.12 951.32C682.39 951.32 685.86 947.86 685.86 943.58 685.86 939.31 682.39 935.84 678.12 935.84 673.85 935.84 670.39 939.31 670.39 943.58 670.39 947.86 673.85 951.32 678.12 951.32Z" fill="#fafafa" opacity="1" stroke-width="4" stroke="#000000"></path></g><g><path d="M300.12 990.25C298.65 980.51 296.9 962.01 296.9 942.31L357.74 945.12C357.04 955.42 355.36 963.9 355.22 971.47L342.04 1008.76 300.12 990.25Z" fill="#fafafa" opacity="1" stroke-width="4" stroke="#000000"></path><path d="M475.77 597.25C479.63 594.87 482.15 593.47 485.09 591.93 486.01 591.44 486.99 590.95 488.18 590.24 511.31 577.98 525.54 575.6 537.1 574.26 537.94 574.19 538.71 574.12 539.42 574.12 546 574.12 546.99 578.19 546.99 578.19H547.06C548.67 578.19 549.86 578.68 550.63 579.66 552.17 581.62 551.61 584.78 551.61 584.78 551.61 584.78 554.34 586.46 554.56 588.98 554.7 590.66 553.71 592.35 551.61 593.96 546.56 598.02 534.72 604.33 533.11 605.17V605.24C534.02 605.1 538.01 604.82 542.08 604.82 547.69 604.82 554.41 605.31 554.41 607.56 554.41 611.48 532.76 614.99 531.85 615.13 531.78 615.2 523.86 620.03 505.42 624.1 505.42 624.1 502.06 628.86 497.36 634.54L495.96 634.4 475.77 597.25Z" fill="#fafafa" opacity="1" stroke-width="4" stroke="#000000"></path><path d="M314.21 535.08C321.29 524.78 330.19 512.02 339.45 492.54 352.62 464.64 369.16 460.44 377.86 460.44 385.36 460.44 391.03 463.45 393.63 466.04 399.86 472.35 399.58 481.67 399.37 489.87 399.3 492.54 399.23 495.06 399.44 497.23 399.65 497.3 404.63 498.64 404.63 500.6 404.63 502.07 403.3 503.89 400.71 505.99 400.56 506.06 400.49 506.14 400.49 506.21 401.9 515.11 402.6 527.58 392.93 532.42 391.03 533.4 388.3 533.89 384.93 533.89 380.8 533.89 377.08 533.12 377.01 533.12L375.68 541.46 314.21 535.08Z" fill="#fafafa" opacity="1" stroke-width="4" stroke="#000000"></path><path d="M393.56 515.11C392.08 514.2 390.47 513.42 388.86 512.86" stroke="#000000" stroke-width="4" stroke-linecap="round" stroke-linejoin="round" opacity="1" fill="none"></path><path d="M294.87 704.14C294.59 703.86 264.38 676.88 259.68 655.85 254.28 631.74 271.67 592.42 311.34 538.94 312.67 537.12 313.65 535.78 314.21 535.01 315.54 533.19 316.67 531.58 317.65 530.11L375.68 541.32 374.28 550.15C396.29 555.83 410.94 572.44 421.59 584.64 422.64 585.83 423.7 587.02 424.68 588.14 437.22 602.3 448.02 614.92 448.16 615.06 448.3 614.99 462.39 605.31 476.54 596.76L497.92 633.91C487.48 646.39 466.45 667.55 442.55 668.96 442.13 668.96 441.71 669.03 441.29 669.03 418.23 669.03 385.57 631.39 385.22 630.97L364.33 685.57 305.52 681.57 294.87 704.14Z" fill="#fafafa" opacity="1" stroke-width="4" stroke="#000000"></path><path d="M294.87 704.21C294.73 704.07 279.17 690.12 268.65 674.63 292.83 670.01 295.15 631.88 295.22 631.46L300.19 673.86 294.87 704.21Z" fill="#fafafa" opacity="0" stroke-width="4" stroke="#ffffff00"></path><path d="M406.8 456.09C404.35 453.01 400.71 451.25 396.78 451.25 393.91 451.25 391.17 452.24 388.93 453.99 388.23 454.55 387.39 455.25 386.76 456.16 382.2 453.29 376.66 451.81 370.64 451.81 366.01 451.81 361.45 452.66 357.11 454.27 360.68 447.4 359.49 435.9 353.32 425.25 345.33 411.37 332.09 404.08 323.82 408.85 315.54 413.61 315.26 428.75 323.25 442.63 329.35 453.22 338.46 459.95 346.17 460.44 344.14 462.05 342.18 463.87 340.5 465.83 313.51 497.09 306.29 499.76 291.92 504.94 288.28 506.28 284.14 507.82 279.1 509.99 247.7 523.66 247.35 545.74 247.35 545.95L265.43 552.82C265.57 552.68 273.07 539.08 286.04 535.64 281.76 542.23 278.68 549.45 276.92 557.16L333.77 578.4C334.05 578.19 361.17 555.13 357.95 512.16 350.03 507.68 347.51 502.07 346.81 498.21 345.96 493.59 347.3 489.38 348.98 487.35 350.38 485.6 353.18 483.78 356.55 483.78 359.91 483.78 364.96 485.6 369.65 494.29 387.88 490.43 398.81 482.65 398.95 482.58 404.56 478.45 408.13 472.91 409.05 467.02 409.54 462.82 408.77 458.75 406.8 456.09Z" fill="#fafafa" opacity="1" stroke-width="4" stroke="#000000"></path><path d="M299.7 673.86L294.17 626.2" stroke="#000000" stroke-width="4" stroke-linecap="round" stroke-linejoin="round" opacity="1" fill="none"></path><path d="M385.22 630.97C380.59 625.22 377.86 621.22 377.86 621.22" stroke="#000000" stroke-width="4" stroke-linecap="round" stroke-linejoin="round" opacity="1" fill="none"></path><path d="M374.28 550.15L369.09 548.82" stroke="#000000" stroke-width="4" stroke-linecap="round" stroke-linejoin="round" opacity="1" fill="none"></path><path d="M357.04 497.09L361.17 501.93" stroke="#000000" stroke-width="4" stroke-linecap="round" stroke-linejoin="round" opacity="1" fill="none"></path><path d="M287.3 648.28L296.97 651.08" stroke="#000000" stroke-width="4" stroke-linecap="round" stroke-linejoin="round" opacity="1" fill="none"></path><path d="M367.41 530.53L377.01 533.05 376.03 539.36 367.41 530.53Z" fill="#fafafa" opacity="0" stroke-width="4" stroke="#ffffff00"></path><path d="M448.16 615.2C448.16 615.2 451.73 612.74 457.55 608.82L458.53 628.02 448.16 615.2Z" fill="#fafafa" opacity="0" stroke-width="4" stroke="#ffffff00"></path><path d="M377.01 533.12C374.42 532.35 371.9 531.16 369.44 530.11" stroke="#000000" stroke-width="4" stroke-linecap="round" stroke-linejoin="round" opacity="1" fill="none"></path><path d="M546.14 577.91C536.19 579.94 526.52 582.95 517.13 586.88" stroke="#000000" stroke-width="4" stroke-linecap="round" stroke-linejoin="round" opacity="1" fill="none"></path><path d="M551.68 585.48C533.04 591.72 522.66 596.55 522.66 596.55" stroke="#000000" stroke-width="4" stroke-linecap="round" stroke-linejoin="round" opacity="1" fill="none"></path><path d="M391.73 500.11C392.9 500.11 393.84 499.17 393.84 498 393.84 496.84 392.9 495.9 391.73 495.9 390.57 495.9 389.63 496.84 389.63 498 389.63 499.17 390.57 500.11 391.73 500.11Z" fill="#000000" opacity="1" stroke-width="4" stroke="#000000"></path><path d="M336.57 673.79C357.32 649.96 370.08 613.58 370.22 613.23 375.82 620.24 385.14 630.97 385.29 631.04L368.74 673.86 336.57 673.79Z" fill="#fafafa" opacity="0" stroke-width="4" stroke="#ffffff00"></path><path d="M448.16 615.06L454.96 622.77" stroke="#000000" stroke-width="4" stroke-linecap="round" stroke-linejoin="round" opacity="1" fill="none"></path><path d="M304.54 1012.12C304.47 1011.91 303.07 1009.95 300.12 990.25H316.95C321.36 990.25 325.71 991.45 329.63 993.62L338.74 998.81C339.31 999.09 339.94 999.3 340.5 999.3 340.85 999.3 341.2 999.23 341.55 999.09 342.39 998.81 343.09 998.17 343.51 997.4 343.93 996.56 344 995.65 343.65 994.81L339.8 983.74C339.45 982.82 339.31 981.84 339.31 980.72 339.31 975.61 343.44 971.47 348.56 971.47H355.22V974.2C355.36 987.73 362.58 991.87 370.15 996.21 374.07 998.45 378.14 1000.77 381.57 1004.48 386.55 1008.97 386.55 1012.12 386.55 1012.12L381.29 1015.49 308.89 1019.55 304.54 1012.12Z" fill="#fafafa" opacity="1" stroke-width="4" stroke="#000000"></path><path d="M307.13 1021.44C306.99 1020.95 305.87 1017.73 304.47 1012.26 304.47 1012.19 304.47 1012.12 304.54 1012.12 308.18 1012.12 383.95 1012.12 386.55 1012.12 386.62 1012.12 386.62 1012.12 386.62 1012.19 387.81 1015 388.37 1018.08 388.3 1021.44 388.3 1021.44 309.94 1021.51 307.2 1021.51 307.13 1021.51 307.13 1021.51 307.13 1021.44Z" fill="#fafafa" opacity="1" stroke-width="4" stroke="#000000"></path><path d="M296.9 945.19C296.83 943.92 296.9 942.8 296.9 941.54 296.9 940.91 296.9 940.28 296.9 939.65 297.32 912.87 301.32 896.05 304.82 881.26 307.83 868.51 310.71 856.45 310.71 840.26 310.71 820.35 306.71 803.11 302.09 783.14 299.07 770.1 295.64 755.31 292.76 737.44 286.67 699.17 299.42 683.54 299.56 683.33L364.96 682.13C365.1 682.9 379.05 747.88 376.31 820.91 374.91 857.85 368.88 887.71 363.56 914.07 361.31 925 359 939.23 357.46 949.04L296.9 945.19Z" fill="#fafafa" opacity="1" stroke-width="4" stroke="#000000"></path><path d="M304.89 880.98C307.9 868.3 310.71 856.31 310.71 840.26 310.71 820.35 306.71 803.11 302.09 783.14 299.07 770.1 295.64 755.31 292.76 737.44 289.61 717.46 291.71 701.2 294.1 691.11 296.62 680.17 299.98 673.86 300.05 673.79H368.81C368.95 674.56 379.12 747.81 376.38 820.84 376.1 828.48 375.61 836.61 374.7 845.8 374.07 845.8 373.44 845.8 372.81 845.8 355.85 845.8 341.76 856.87 328.09 867.66 320.45 873.69 312.46 879.93 304.26 884H304.19L304.89 880.98Z" fill="#fafafa" opacity="0" stroke-width="4" stroke="#ffffff00"></path><path d="M363.35 991.03L356.34 997.61" stroke="#000000" stroke-width="4" stroke-linecap="round" stroke-linejoin="round" opacity="1" fill="none"></path><path d="M370.15 994.81L365.31 1003.78" stroke="#000000" stroke-width="4" stroke-linecap="round" stroke-linejoin="round" opacity="1" fill="none"></path><path d="M154.19 950.02C160.08 934.11 169.12 915.75 179.43 899.7L234.24 934.53C225.34 945.4 217.84 954.72 213.14 961.45L188.75 990.53 154.19 950.02Z" fill="#fafafa" opacity="1" stroke-width="4" stroke="#000000"></path><path d="M146.06 977.01C146.06 976.87 147.82 966.7 154.19 949.95L170.95 959.13C174.73 961.24 178.03 964.32 180.34 968.04L185.74 976.73C186.16 977.36 186.79 977.78 187.49 977.92 187.63 977.92 187.84 977.99 187.98 977.99 189.17 977.99 190.15 977.15 190.43 975.89L193.59 958.22C193.66 957.73 193.87 957.17 194.15 956.68 194.99 955.07 196.67 954.09 198.49 954.09 199.33 954.09 200.17 954.3 200.88 954.72L213.21 961.52C212.65 962.29 212.23 963.06 211.81 963.69 204.87 975.32 208.66 982.61 212.58 990.32 214.61 994.32 216.79 998.45 217.63 1003.43 218.75 1009.74 217.7 1015.07 214.12 1020.32L212.51 1018.29 146.06 977.01Z" fill="#fafafa" opacity="1" stroke-width="4" stroke="#000000"></path><path d="M145.71 977.71C145.71 977.64 146.34 974.27 148.03 968.39L217.49 1012.96C216.86 1015.98 215.66 1018.85 213.91 1021.44L145.71 977.71Z" fill="#fafafa" opacity="1" stroke-width="4" stroke="#000000"></path><path d="M177.11 903.34C177.61 902.5 178.1 901.66 178.59 900.96 190.99 880.98 199.61 871.1 208.02 861.5 215.24 853.23 222.04 845.45 230.66 831.92 240.06 817.27 244.26 796.8 248.75 775.14 252.88 755.1 257.16 734.42 265.85 714.59 275.59 692.3 297.88 690.54 298.09 690.4L341.69 683.04C341.55 684.24 326.9 790.92 284.42 866.19 271.81 888.69 251.41 913.57 235.08 933.55L231.22 938.25 177.11 903.34Z" fill="#fafafa" opacity="1" stroke-width="4" stroke="#000000"></path><path d="M208.94 867.95C206.9 867.95 204.8 867.88 202.63 867.81 204.45 865.63 206.2 863.53 207.95 861.57 215.17 853.23 222.04 845.31 230.87 831.64 240.2 817.06 244.47 796.59 248.96 775 253.09 754.96 257.44 734.21 266.06 714.31L326.27 756.01C317.51 789.65 307.2 819.37 295.64 844.39 277.27 847.48 265.01 852.67 254.21 857.22 240.62 862.97 228.91 867.95 208.94 867.95Z" fill="#fafafa" opacity="0" stroke-width="4" stroke="#ffffff00"></path><path d="M209.36 981.91L200.31 983.81" stroke="#000000" stroke-width="4" stroke-linecap="round" stroke-linejoin="round" opacity="1" fill="none"></path><path d="M212.37 988.36L204.45 992.78" stroke="#000000" stroke-width="4" stroke-linecap="round" stroke-linejoin="round" opacity="1" fill="none"></path><path d="M368.74 673.86H299.7C299.49 673.93 280.64 679.05 256.25 715.99 242.79 736.31 228.42 745.78 215.73 754.12 207.18 759.79 199.26 764.98 192.39 772.62L209.22 805.42 376.66 808.37C377.93 739.68 368.88 674.56 368.74 673.86Z" fill="#fafafa" opacity="1" stroke-width="4" stroke="#000000"></path><path d="M375.33 838.16C375.26 838.16 370.43 835.63 361.59 833.25 353.46 831.08 340.08 828.41 322.97 828.41 321.01 828.41 318.98 828.41 317.02 828.48 310.99 828.69 305.66 829.25 299.91 829.89 292.62 830.66 285.05 831.5 275.8 831.5 264.73 831.5 252.6 830.31 238.93 827.78 201.44 820.98 179.78 793.51 179.57 793.23 182.86 785.17 187.21 778.16 192.39 772.55 201.09 780.82 219.45 795.4 245.31 800.1 259.12 802.62 271.18 803.81 282.32 803.81 291.57 803.81 299.14 802.97 306.43 802.2 312.04 801.57 317.37 801.01 323.32 800.8 325.29 800.73 327.25 800.73 329.21 800.73 350.94 800.73 367.06 804.86 376.66 808.3 376.59 812.36 376.52 816.57 376.38 820.7 376.17 826.59 375.4 838.09 375.33 838.16Z" fill="#fafafa" opacity="1" stroke-width="4" stroke="#000000"></path></g><g><path d="M1036.12 964.7L1019.49 950.3 1014.89 908C1024.09 894.58 1034.82 881.86 1046.85 870.14L1107.7 863.93 1091.91 915.89C1071.3 932.21 1059.34 943.48 1059.26 952.21L1059.19 954.97C1059.03 955.05 1042.71 959.88 1036.12 964.7Z" fill="#fafafa" opacity="1" stroke-width="4" stroke="#000000"></path><path d="M1002.48 927.69C1006.39 920.72 1010.53 914.36 1014.89 908 1027.61 917.19 1030.83 934.74 1022.4 948L1002.48 927.69Z" fill="#fafafa" opacity="1" stroke-width="4" stroke="#000000"></path><path d="M1225.94 1011.3L1196.44 985.01C1194.22 968.54 1193.83 951.6 1195.14 935.05L1235.52 883.86 1257.9 935.2C1253.3 961.41 1251.54 978.73 1257.06 984.25 1257.44 984.63 1257.82 985.01 1258.13 985.32L1258.44 985.63C1258.67 985.86 1258.9 986.01 1259.13 986.24L1247.33 1011.38H1225.94V1011.3Z" fill="#fafafa" opacity="1" stroke-width="4" stroke="#000000"></path><path d="M1200.5 1007.39C1198.82 1000.26 1197.44 992.6 1196.44 985.01 1210.31 985.4 1222.27 994.13 1226.86 1007.24L1200.5 1007.39Z" fill="#fafafa" opacity="1" stroke-width="4" stroke="#000000"></path><path d="M1184.56 545.05C1184.64 546.59 1186.4 492.64 1186.4 482.06 1186.4 463.67 1194.68 456.69 1213.15 456.16 1213.84 456.16 1214.53 459.38 1215.22 459.38 1230.31 459.38 1240.81 454.93 1247.02 464.59 1250.54 470.11 1251.92 480.45 1253.15 489.49 1253.23 489.49 1259.13 490.72 1259.51 493.25 1259.89 496.16 1254.91 500.07 1254.68 500.3L1254.84 500.84C1256.22 508.81 1257.67 517.01 1253 523.83 1249.78 528.42 1244.18 531.03 1237.52 531.03 1234.91 531.03 1232.23 530.57 1229.78 529.8L1229.62 543.52V545.13L1184.56 545.05Z" fill="#fafafa" opacity="1" stroke-width="4" stroke="#000000"></path><path d="M1224.03 526.28C1226.4 527.81 1227.4 528.35 1229.55 529.57 1229.7 529.65 1229.78 529.8 1229.78 529.96L1229.7 536.47C1229.7 536.93 1229.16 537.08 1228.93 536.7L1223.42 526.89C1223.19 526.51 1223.65 526.05 1224.03 526.28Z" fill="#fafafa" opacity="0" stroke-width="4" stroke="#ffffff00"></path><path d="M1243.03 490.88C1241.81 490.88 1240.74 489.89 1240.74 488.58 1240.74 487.36 1241.73 486.28 1243.03 486.28 1244.26 486.28 1245.33 487.28 1245.33 488.58 1245.33 489.81 1244.26 490.88 1243.03 490.88Z" fill="#000000" opacity="1" stroke-width="4" stroke="#000000"></path><path d="M1170.38 671.12L1152.91 562.91C1154.9 559.54 1157.13 556.47 1159.58 553.87 1168.7 543.98 1183.95 543.9 1184.1 543.9H1229.32C1229.32 543.9 1230.31 543.9 1231.08 543.9 1234.99 543.9 1244.87 544.21 1252.46 546.66L1255.45 629.43 1248.48 671.19 1170.38 671.12Z" fill="#fafafa" opacity="1" stroke-width="4" stroke="#000000"></path><path d="M1227.09 670.81L1248.02 605.67 1255.6 629.35 1248.63 670.81H1227.09Z" fill="#fafafa" opacity="0" stroke-width="4" stroke="#ffffff00"></path><path d="M1160.5 682.31C1149.39 680.48 1128.31 671.36 1128.31 650.05 1128.31 627.67 1138.89 585.45 1153.07 562.53L1170.54 670.74 1160.5 682.31Z" fill="#fafafa" opacity="1" stroke-width="4" stroke="#000000"></path><path d="M1248.63 670.66L1187.17 670.73H1170.54C1142.72 694.87 1133.75 735.11 1126.86 774.19 1121.42 805.08 1119.19 817.87 1079.34 843.93 1067.77 851.52 1056.81 860.33 1046.85 870.14L1062.56 886.08 1095.65 872.62 1077.27 901.25 1091.76 916.04C1095.13 913.44 1098.65 910.68 1102.41 907.84 1115.59 897.5 1130.61 885.77 1146.02 872.36 1167.09 854.04 1184.1 823.31 1196.9 792.97 1198.43 796.42 1199.81 799.79 1201.04 803.24 1212.53 835.35 1211 850.83 1198.74 908.99 1196.9 917.96 1195.75 926.69 1195.14 935.05L1218.28 935.12 1234.08 901.58 1237.98 935.2H1257.9C1258.97 928.92 1260.2 922.33 1261.43 915.28 1265.56 892.44 1270.32 866.61 1273.23 838.64 1280.74 766.99 1249.01 671.65 1248.63 670.66Z" fill="#fafafa" opacity="1" stroke-width="4" stroke="#000000"></path><path d="M1247.02 464.28C1240.81 454.63 1230.47 449.95 1215.37 449.95 1214.68 449.95 1213.99 449.95 1213.3 449.95 1207.63 450.1 1202.57 451.41 1198.28 453.71 1197.61 454.48 1201.35 450.03 1202.57 447.81 1209.24 435.01 1204.33 419.22 1191.54 412.55 1178.74 405.89 1162.95 410.79 1156.28 423.59 1149.62 436.39 1154.52 452.17 1167.32 458.84 1175.06 462.9 1191.51 458.74 1191.08 459.07 1185.64 464.66 1182.49 472.48 1182.49 481.75 1182.49 484.21 1182.65 488.57 1182.72 494.09L1182.88 499C1178.12 497.77 1170.69 496.31 1162.26 496.31 1147.62 496.31 1135.67 500.53 1126.86 508.88 1114.82 520.22 1108.16 533.25 1106.93 547.51 1105.94 558.7 1108.77 567.13 1110 569.42 1105.55 572.03 1101.87 577.7 1099.73 585.06 1097.51 592.72 1097.43 601.07 1099.42 608.51 1102.03 618.24 1110.84 634.64 1139.88 634.64 1167.01 634.64 1182.11 621.61 1190 610.58 1203.87 591.34 1204.79 567.2 1199.66 551.8 1215.45 539 1212.76 515.17 1212.69 514.94 1212.53 514.86 1199.97 507.2 1198.51 497.77 1197.97 494.09 1199.12 490.64 1201.96 487.43 1203.8 485.51 1206.02 484.51 1208.7 484.51 1214.83 484.51 1221.42 489.65 1223.34 491.26 1223.34 491.33 1223.42 491.33 1223.42 491.33 1229.09 487.73 1231.85 480.91 1233.75 475.72 1233.76 475.7 1237.21 476.31 1240.43 476.31 1247.02 476.31 1250.62 473.71 1250.62 473.63 1249.85 470.11 1248.63 467.04 1247.02 464.28Z" fill="#fafafa" opacity="1" stroke-width="4" stroke="#000000"></path><path d="M1305.64 664.76C1280.13 664.76 1255.68 629.74 1255.45 629.43 1255.3 629.2 1237.82 605.67 1239.36 578.08 1240.12 563.83 1243.65 556.01 1246.48 552.03 1249.32 548.04 1251.92 546.82 1252.38 546.66 1252.46 546.66 1252.46 546.66 1252.54 546.66 1266.18 551.19 1277.67 565.98 1280.89 570.42 1290.85 584.06 1303.5 603.45 1305.18 606.13 1305.26 606.29 1305.49 606.29 1305.57 606.13 1308.33 601.61 1340.51 549.96 1352.09 540.53 1354.46 538.62 1356.38 537.62 1357.99 537.62 1360.36 537.62 1361.13 540 1361.28 540.92 1361.28 541.07 1361.51 541.15 1361.66 541.07 1363.89 539.31 1377.68 528.96 1383.05 528.96 1383.2 528.96 1383.35 528.96 1383.51 528.96 1386.65 529.42 1387.18 531.64 1387.34 532.56 1387.34 532.72 1387.49 532.79 1387.64 532.72 1388.18 532.49 1389.48 532.1 1390.79 532.1 1392.32 532.1 1393.47 532.56 1394.23 533.56 1396.53 536.62 1394.23 539.69 1394.23 539.77H1394.31C1394.39 539.77 1394.46 539.84 1394.62 539.84 1395.69 540.38 1396.53 541.38 1396.92 542.53 1397.3 543.68 1397.15 544.82 1396.61 545.9 1394.77 550.34 1383.81 559.08 1380.21 561.84 1379.98 561.99 1380.21 562.3 1380.44 562.22 1383.89 561.07 1392.55 558.31 1396.38 558.31 1397.38 558.31 1397.99 558.47 1398.22 558.85 1398.76 559.62 1398.99 560.38 1398.76 561.3 1398.22 563.6 1395 566.28 1389.79 568.89 1383.74 571.95 1378.45 575.33 1376.76 577.32 1376 578.24 1375.23 579.16 1374.46 580.08 1370.71 584.67 1367.18 588.97 1361.59 590.35 1361.51 590.35 1361.43 590.42 1361.43 590.5 1361.05 592.18 1356.15 609.73 1347.49 627.05 1339.06 643.91 1325.26 664.07 1307.02 664.68 1306.64 664.68 1306.56 664.68 1306.26 664.68L1305.64 664.76Z" fill="#fafafa" opacity="1" stroke-width="4" stroke="#000000"></path><path d="M1247.25 1007.54C1248.09 999.27 1252.38 991.3 1259.05 986.16 1261.89 988.69 1265.18 990.91 1268.17 993.21 1274.07 997.58 1279.59 1001.8 1283.04 1007.16L1282.65 1008.77 1247.25 1007.54Z" fill="#fafafa" opacity="1" stroke-width="4" stroke="#000000"></path><path d="M1036.43 962.33C1042.94 957.58 1050.61 954.97 1058.58 954.97H1059.19C1059.42 958.8 1059.88 962.64 1060.49 966.62 1061.49 973.98 1062.48 980.87 1060.95 987.08L1060.57 987.77 1036.43 962.33Z" fill="#fafafa" opacity="1" stroke-width="4" stroke="#000000"></path><path d="M1240.89 503.75C1242.19 505.43 1244.34 506.35 1246.48 506.05" stroke="#000000" stroke-width="4" stroke-linecap="round" stroke-linejoin="round" opacity="1" fill="none"></path><path d="M1209.62 498.23L1215.22 502.6" stroke="#000000" stroke-width="4" stroke-linecap="round" stroke-linejoin="round" opacity="1" fill="none"></path><path d="M1221.42 524.67C1223.95 526.28 1227.32 528.27 1229.78 529.73" stroke="#000000" stroke-width="4" stroke-linecap="round" stroke-linejoin="round" opacity="1" fill="none"></path><path d="M1176.98 733.27C1180.27 759.94 1189.01 774.73 1196.9 792.97" stroke="#000000" stroke-width="4" stroke-linecap="round" stroke-linejoin="round" opacity="1" fill="none"></path><path d="M1165.86 645.45L1157.43 647.74" stroke="#000000" stroke-width="4" stroke-linecap="round" stroke-linejoin="round" opacity="1" fill="none"></path><path d="M1305.41 606.44V619.24" stroke="#000000" stroke-width="4" stroke-linecap="round" stroke-linejoin="round" opacity="1" fill="none"></path><path d="M1387.34 532.87C1387.34 532.87 1371.24 542.76 1360.51 551.19" stroke="#000000" stroke-width="4" stroke-linecap="round" stroke-linejoin="round" opacity="1" fill="none"></path><path d="M1394.23 538.92C1394.23 538.92 1379.29 550.8 1368.56 559.23" stroke="#000000" stroke-width="4" stroke-linecap="round" stroke-linejoin="round" opacity="1" fill="none"></path><path d="M1361.43 541.08C1358.45 543.22 1354.77 544.91 1352.09 547.36" stroke="#000000" stroke-width="4" stroke-linecap="round" stroke-linejoin="round" opacity="1" fill="none"></path><path d="M1170.46 670.73H1248.63" stroke="#000000" stroke-width="4" stroke-linecap="round" stroke-linejoin="round" opacity="1" fill="none"></path><path d="M1203.41 1017.97C1203.34 1017.89 1202.11 1013.98 1200.5 1007.24L1283.04 1007.16C1285.11 1010.38 1286.18 1014.13 1286.18 1017.97H1203.41Z" fill="#fafafa" opacity="1" stroke-width="4" stroke="#000000"></path><path d="M1055.43 996.66L997.5 937.58C997.5 937.5 999.18 933.74 1002.56 927.61L1060.95 987.08C1060.11 990.68 1058.19 993.98 1055.43 996.66Z" fill="#fafafa" stroke="#000000" stroke-width="4" opacity="1"></path></g></svg>