<?xml version="1.0" encoding="iso-8859-1"?>
<!-- Generator: Adobe Illustrator 19.0.0, SVG Export Plug-In . SVG Version: 6.00 Build 0)  -->
<svg version="1.1" id="Capa_1" xmlns="http://www.w3.org/2000/svg" xmlns:xlink="http://www.w3.org/1999/xlink" x="0px" y="0px"
	 viewBox="0 0 323.97 323.97" style="enable-background:new 0 0 323.97 323.97;" xml:space="preserve">
<g>
	<g>
		<path d="M315.062,175.001h-112.28c-4.907,0-8.907,4-8.907,8.906c0,2.499,1.062,4.75,2.718,6.374l79.062,79.062
			c1.624,1.75,3.97,2.845,6.533,2.845c3.093,0,5.811-1.563,7.405-3.938c19.438-22.563,31.938-51.219,34.189-82.75
			c0.125-0.531,0.187-1.062,0.187-1.594C323.97,179.001,320,175.001,315.062,175.001z"/>
	</g>
</g>
<g>
	<g>
		<path d="M168.875,13.594c-4.907,0.03-8.875,4-8.875,8.906v124.781c0,4.938,3.968,8.938,8.875,8.938h124.813
			c4.907,0,8.906-4,8.906-8.938C298.187,75.47,240.718,18.001,168.875,13.594z"/>
	</g>
</g>
<g>
	<g>
		<path d="M237.469,262.063l-92.062-92.062c-1.562-1.594-2.499-3.813-2.499-6.219L142.875,33.75c0-4.906-3.968-8.875-8.875-8.875
			C59.219,29.438,0,91.562,0,167.47c0,78.906,63.97,142.906,142.875,142.906c36,0,68.875-13.312,94-35.282
			c1.938-1.626,3.157-4.062,3.157-6.781C240.032,265.906,239.062,263.687,237.469,262.063z"/>
	</g>
</g>
<g>
</g>
<g>
</g>
<g>
</g>
<g>
</g>
<g>
</g>
<g>
</g>
<g>
</g>
<g>
</g>
<g>
</g>
<g>
</g>
<g>
</g>
<g>
</g>
<g>
</g>
<g>
</g>
<g>
</g>
</svg>
